<svg width="325" height="403" viewBox="0 0 325 403" fill="none" xmlns="http://www.w3.org/2000/svg">
<path d="M135.418 8.67763C147.681 12.5038 235.996 37.8347 245.133 46.6464C248.013 50.9275 256.26 69.7586 258.778 74.5521C262.609 81.8454 279.475 129.707 284.924 135.748C284.924 135.748 297.019 169.604 312.206 190.459C323.381 205.805 324.458 222.155 324.344 241.099C324.22 261.641 319.779 281.934 311.474 301.102C305.274 315.412 296.979 329.915 289.838 343.83C284.037 355.133 275.499 365.28 266.371 373.667C253.984 385.049 240.203 396.688 224.21 401.408C211.569 405.138 199.531 399.464 187.739 395.785C169.233 390.011 152.916 383.476 136.651 372.575C123.765 363.939 111.622 357.496 96.9173 352.908C63.4752 342.474 31.7412 332.463 9.48239 302.202C2.6479 292.91 2.45156 280.548 -0.540626 269.59C-4.13841 256.414 -6.24461 242.447 -5.11234 228.581C-3.85455 213.177 -5.01518 197.736 -4.37739 182.361C-3.83523 169.292 -2.19699 157.648 -2.92884 144.442C-4.27611 120.132 4.65529 98.0511 11.8079 75.1261C14.6253 66.0962 16.9149 56.7405 21.0514 48.2222C26.0175 37.9956 30.7312 33.7969 39.3538 26.4671C44.6327 21.9797 49.6058 16.0921 55.7604 12.9055C64.8993 8.17387 76.118 5.45435 85.7002 1.64771C93.3138 -1.3769 102.658 3.38925 110.301 3.56771C119.264 3.77695 126.977 6.04428 135.418 8.67763Z" fill="#FFEBD7"/>
</svg>
